<?xml version="1.0" encoding="UTF-8"?>
<svg xmlns="http://www.w3.org/2000/svg" xmlns:xlink="http://www.w3.org/1999/xlink" width="646pt" height="403pt" viewBox="0 0 646 403" version="1.1">
<defs>
<clipPath id="clip1">
  <path d="M 121.5 0 L 524.5 0 L 524.5 403 L 121.5 403 Z M 121.5 0 "/>
</clipPath>
<clipPath id="clip2">
  <path d="M 129.71875 5.480469 L 519.019531 5.480469 L 519.019531 394.78125 L 129.71875 394.78125 Z M 129.71875 5.480469 "/>
</clipPath>
</defs>
<g id="surface31">
<rect x="0" y="0" width="646" height="403" style="fill:rgb(100%,100%,100%);fill-opacity:1;stroke:none;"/>
<g clip-path="url(#clip1)" clip-rule="nonzero">
<path style="fill-rule:nonzero;fill:rgb(100%,100%,100%);fill-opacity:1;stroke-width:1.066978;stroke-linecap:round;stroke-linejoin:round;stroke:rgb(100%,100%,100%);stroke-opacity:1;stroke-miterlimit:10;" d="M 121.5 403 L 524.5 403 L 524.5 0 L 121.5 0 Z M 121.5 403 "/>
</g>
<g clip-path="url(#clip2)" clip-rule="nonzero">
<path style=" stroke:none;fill-rule:nonzero;fill:rgb(100%,100%,100%);fill-opacity:1;" d="M 129.71875 394.78125 L 519.019531 394.78125 L 519.019531 5.480469 L 129.71875 5.480469 Z M 129.71875 394.78125 "/>
</g>
<path style=" stroke:none;fill-rule:nonzero;fill:rgb(100%,75.294118%,79.607843%);fill-opacity:1;" d="M 324.371094 200.128906 L 324.371094 199.492188 L 324.367188 199.296875 L 324.367188 198.832031 L 324.363281 198.5625 L 324.359375 198.265625 L 324.355469 197.945313 L 324.347656 197.597656 L 324.339844 197.230469 L 324.328125 196.835938 L 324.3125 196.417969 L 324.296875 195.980469 L 324.273438 195.515625 L 324.246094 195.027344 L 324.210938 194.519531 L 324.167969 193.988281 L 324.121094 193.4375 L 324.0625 192.863281 L 323.996094 192.269531 L 323.917969 191.65625 L 323.828125 191.023438 L 323.722656 190.371094 L 323.601563 189.703125 L 323.464844 189.015625 L 323.3125 188.3125 L 323.140625 187.59375 L 322.945313 186.859375 L 322.730469 186.113281 L 322.488281 185.351563 L 322.222656 184.582031 L 321.925781 183.800781 L 321.601563 183.011719 L 321.246094 182.214844 L 320.855469 181.410156 L 320.433594 180.605469 L 319.972656 179.796875 L 319.472656 178.988281 L 318.933594 178.183594 L 318.355469 177.378906 L 317.730469 176.585938 L 317.0625 175.796875 L 316.34375 175.023438 L 315.582031 174.261719 L 314.769531 173.515625 L 313.910156 172.792969 L 312.996094 172.09375 L 312.03125 171.417969 L 311.015625 170.773438 L 309.945313 170.160156 L 308.824219 169.585938 L 307.648438 169.054688 L 306.417969 168.566406 L 305.140625 168.125 L 303.808594 167.734375 L 302.425781 167.402344 L 300.996094 167.128906 L 299.519531 166.917969 L 297.996094 166.777344 L 296.429688 166.707031 L 294.820313 166.714844 L 293.175781 166.800781 L 291.496094 166.96875 L 289.785156 167.222656 L 288.046875 167.566406 L 286.28125 168.003906 L 284.5 168.535156 L 282.707031 169.167969 L 280.902344 169.898438 L 279.09375 170.734375 L 277.285156 171.675781 L 275.484375 172.722656 L 273.695313 173.875 L 271.925781 175.136719 L 270.179688 176.507813 L 268.464844 177.984375 L 266.785156 179.574219 L 265.152344 181.265625 L 263.566406 183.0625 L 262.039063 184.964844 L 260.570313 186.96875 L 259.171875 189.070313 L 257.847656 191.269531 L 256.601563 193.558594 L 255.4375 195.933594 L 254.367188 198.394531 L 253.390625 200.933594 L 252.515625 203.542969 L 251.742188 206.222656 L 251.078125 208.964844 L 250.523438 211.765625 L 250.082031 214.613281 L 249.757813 217.503906 L 249.550781 220.429688 L 249.460938 223.386719 L 249.496094 226.367188 L 249.648438 229.363281 L 249.921875 232.367188 L 250.316406 235.375 L 250.832031 238.378906 L 251.460938 241.371094 L 252.210938 244.347656 L 253.070313 247.296875 L 254.039063 250.21875 L 255.113281 253.101563 L 256.289063 255.949219 L 257.566406 258.746094 L 258.933594 261.492188 L 260.390625 264.183594 L 261.929688 266.8125 L 263.546875 269.382813 L 265.238281 271.882813 L 266.992188 274.316406 L 268.804688 276.675781 L 270.671875 278.960938 L 272.585938 281.171875 L 274.542969 283.308594 L 276.53125 285.367188 L 278.546875 287.347656 L 280.582031 289.25 L 282.632813 291.078125 L 284.691406 292.828125 L 286.75 294.503906 L 288.804688 296.109375 L 290.851563 297.640625 L 292.878906 299.105469 L 294.882813 300.503906 L 296.863281 301.835938 L 298.804688 303.109375 L 300.710938 304.324219 L 302.570313 305.480469 L 304.382813 306.589844 L 306.140625 307.648438 L 307.84375 308.660156 L 309.480469 309.632813 L 311.050781 310.566406 L 312.554688 311.464844 L 313.980469 312.332031 L 315.328125 313.171875 L 316.59375 313.984375 L 317.777344 314.773438 L 318.871094 315.546875 L 319.875 316.304688 L 320.785156 317.042969 L 321.597656 317.773438 L 322.3125 318.496094 L 322.925781 319.210938 L 323.429688 319.917969 L 323.832031 320.621094 L 324.125 321.320313 L 324.304688 322.015625 L 324.371094 322.710938 L 324.320313 323.402344 L 324.15625 324.09375 L 323.871094 324.777344 L 323.464844 325.460938 L 322.933594 326.140625 L 322.28125 326.8125 L 321.503906 327.472656 L 320.597656 328.125 L 319.566406 328.761719 L 318.40625 329.382813 L 317.117188 329.984375 L 315.695313 330.5625 L 314.144531 331.109375 L 312.464844 331.625 L 310.65625 332.101563 L 308.714844 332.535156 L 306.648438 332.921875 L 304.449219 333.257813 L 302.128906 333.53125 L 299.683594 333.738281 L 297.113281 333.871094 L 294.425781 333.929688 L 291.621094 333.898438 L 288.703125 333.777344 L 285.679688 333.558594 L 282.546875 333.230469 L 279.320313 332.792969 L 275.996094 332.234375 L 272.585938 331.546875 L 269.089844 330.730469 L 265.523438 329.773438 L 261.890625 328.671875 L 258.195313 327.421875 L 254.453125 326.011719 L 250.664063 324.441406 L 246.847656 322.703125 L 243.003906 320.796875 L 239.152344 318.71875 L 235.296875 316.460938 L 231.449219 314.027344 L 227.621094 311.410156 L 223.824219 308.613281 L 220.070313 305.632813 L 216.371094 302.472656 L 212.734375 299.128906 L 209.179688 295.609375 L 205.707031 291.910156 L 202.339844 288.042969 L 199.082031 284.003906 L 195.945313 279.804688 L 192.941406 275.449219 L 190.078125 270.941406 L 187.367188 266.289063 L 184.820313 261.503906 L 182.441406 256.589844 L 180.242188 251.5625 L 178.230469 246.421875 L 176.410156 241.1875 L 174.785156 235.867188 L 173.367188 230.472656 L 172.15625 225.011719 L 171.15625 219.5 L 170.371094 213.949219 L 169.800781 208.371094 L 169.449219 202.773438 L 169.3125 197.175781 L 169.390625 191.585938 L 169.683594 186.019531 L 170.191406 180.484375 L 170.90625 174.992188 L 171.824219 169.554688 L 172.941406 164.1875 L 174.253906 158.894531 L 175.75 153.6875 L 177.433594 148.578125 L 179.285156 143.574219 L 181.304688 138.679688 L 183.480469 133.910156 L 185.804688 129.265625 L 188.265625 124.753906 L 190.859375 120.386719 L 193.574219 116.160156 L 196.394531 112.082031 L 199.316406 108.160156 L 202.332031 104.390625 L 205.421875 100.777344 L 208.585938 97.324219 L 211.808594 94.03125 L 215.082031 90.894531 L 218.394531 87.921875 L 221.738281 85.105469 L 225.105469 82.445313 L 228.484375 79.941406 L 231.867188 77.59375 L 235.246094 75.390625 L 238.617188 73.335938 L 241.964844 71.421875 L 245.289063 69.652344 L 248.578125 68.011719 L 251.828125 66.503906 L 255.035156 65.121094 L 258.1875 63.859375 L 261.289063 62.714844 L 264.328125 61.679688 L 267.304688 60.75 L 270.210938 59.917969 L 273.046875 59.183594 L 275.808594 58.539063 L 278.492188 57.976563 L 281.09375 57.492188 L 283.617188 57.085938 L 286.058594 56.746094 L 288.417969 56.472656 L 290.6875 56.257813 L 292.875 56.097656 L 294.976563 55.984375 L 296.992188 55.921875 L 298.921875 55.898438 L 300.765625 55.914063 L 302.523438 55.964844 L 304.199219 56.042969 L 305.792969 56.148438 L 307.304688 56.28125 L 308.734375 56.429688 L 310.085938 56.597656 L 311.359375 56.78125 L 312.558594 56.976563 L 313.683594 57.183594 L 314.734375 57.398438 L 315.71875 57.617188 L 316.632813 57.839844 L 317.480469 58.0625 L 318.265625 58.289063 L 318.988281 58.515625 L 319.652344 58.734375 L 320.261719 58.953125 L 320.816406 59.167969 L 321.316406 59.375 L 321.769531 59.578125 L 322.175781 59.773438 L 322.539063 59.957031 L 322.855469 60.136719 L 323.136719 60.304688 L 323.378906 60.460938 L 323.589844 60.609375 L 323.765625 60.75 L 323.914063 60.875 L 324.035156 60.992188 L 324.136719 61.09375 L 324.210938 61.1875 L 324.269531 61.269531 L 324.3125 61.335938 L 324.339844 61.394531 L 324.359375 61.4375 L 324.367188 61.472656 L 324.371094 61.492188 L 324.371094 61.5 L 324.371094 61.496094 L 324.382813 61.449219 L 324.394531 61.410156 L 324.421875 61.355469 L 324.457031 61.289063 L 324.511719 61.214844 L 324.582031 61.125 L 324.671875 61.023438 L 324.785156 60.914063 L 324.925781 60.789063 L 325.09375 60.65625 L 325.292969 60.511719 L 325.523438 60.355469 L 325.792969 60.191406 L 326.097656 60.015625 L 326.445313 59.832031 L 326.839844 59.640625 L 327.277344 59.441406 L 327.761719 59.234375 L 328.300781 59.023438 L 328.890625 58.804688 L 329.535156 58.585938 L 330.242188 58.363281 L 331.007813 58.136719 L 331.835938 57.910156 L 332.726563 57.6875 L 333.6875 57.464844 L 334.71875 57.25 L 335.820313 57.042969 L 336.992188 56.84375 L 338.242188 56.65625 L 339.570313 56.484375 L 340.976563 56.328125 L 342.460938 56.1875 L 344.027344 56.074219 L 345.675781 55.988281 L 347.40625 55.925781 L 349.226563 55.902344 L 351.128906 55.910156 L 353.113281 55.960938 L 355.1875 56.054688 L 357.347656 56.199219 L 359.59375 56.398438 L 361.921875 56.652344 L 364.335938 56.972656 L 366.835938 57.355469 L 369.414063 57.816406 L 372.074219 58.351563 L 374.808594 58.96875 L 377.621094 59.675781 L 380.507813 60.472656 L 383.460938 61.371094 L 386.480469 62.375 L 389.558594 63.484375 L 392.699219 64.707031 L 395.886719 66.050781 L 399.125 67.519531 L 402.402344 69.117188 L 405.714844 70.847656 L 409.058594 72.714844 L 412.421875 74.722656 L 415.796875 76.875 L 419.179688 79.179688 L 422.5625 81.636719 L 425.933594 84.246094 L 429.285156 87.011719 L 432.609375 89.933594 L 435.898438 93.015625 L 439.136719 96.261719 L 442.320313 99.664063 L 445.433594 103.226563 L 448.472656 106.945313 L 451.425781 110.820313 L 454.28125 114.847656 L 457.03125 119.027344 L 459.664063 123.351563 L 462.167969 127.816406 L 464.535156 132.417969 L 466.761719 137.152344 L 468.832031 142.003906 L 470.738281 146.976563 L 472.472656 152.050781 L 474.03125 157.230469 L 475.402344 162.496094 L 476.582031 167.84375 L 477.566406 173.257813 L 478.34375 178.734375 L 478.917969 184.253906 L 479.277344 189.816406 L 479.425781 195.398438 L 479.359375 200.996094 L 479.074219 206.59375 L 478.574219 212.175781 L 477.855469 217.738281 L 476.925781 223.265625 L 475.78125 228.742188 L 474.425781 234.160156 L 472.867188 239.507813 L 471.109375 244.769531 L 469.15625 249.9375 L 467.015625 255.003906 L 464.695313 259.957031 L 462.199219 264.78125 L 459.539063 269.476563 L 456.726563 274.03125 L 453.765625 278.4375 L 450.671875 282.6875 L 447.449219 286.777344 L 444.113281 290.699219 L 440.675781 294.453125 L 437.144531 298.03125 L 433.53125 301.429688 L 429.851563 304.648438 L 426.113281 307.6875 L 422.328125 310.542969 L 418.507813 313.214844 L 414.667969 315.707031 L 410.8125 318.019531 L 406.957031 320.15625 L 403.113281 322.117188 L 399.285156 323.90625 L 395.488281 325.53125 L 391.730469 326.988281 L 388.019531 328.292969 L 384.363281 329.441406 L 380.773438 330.441406 L 377.257813 331.304688 L 373.816406 332.03125 L 370.464844 332.628906 L 367.207031 333.105469 L 364.042969 333.464844 L 360.984375 333.71875 L 358.03125 333.871094 L 355.191406 333.929688 L 352.464844 333.898438 L 349.859375 333.789063 L 347.375 333.605469 L 345.011719 333.351563 L 342.773438 333.035156 L 340.667969 332.664063 L 338.683594 332.246094 L 336.832031 331.78125 L 335.113281 331.277344 L 333.519531 330.738281 L 332.058594 330.171875 L 330.726563 329.578125 L 329.527344 328.964844 L 328.453125 328.332031 L 327.507813 327.683594 L 326.6875 327.023438 L 325.996094 326.355469 L 325.429688 325.679688 L 324.984375 324.996094 L 324.660156 324.3125 L 324.457031 323.621094 L 324.371094 322.929688 L 324.398438 322.238281 L 324.542969 321.539063 L 324.800781 320.84375 L 325.164063 320.140625 L 325.640625 319.433594 L 326.21875 318.722656 L 326.898438 318.003906 L 327.679688 317.277344 L 328.558594 316.539063 L 329.535156 315.789063 L 330.601563 315.023438 L 331.753906 314.238281 L 332.996094 313.433594 L 334.320313 312.601563 L 335.722656 311.742188 L 337.199219 310.855469 L 338.75 309.933594 L 340.367188 308.976563 L 342.046875 307.976563 L 343.789063 306.929688 L 345.582031 305.839844 L 347.429688 304.699219 L 349.320313 303.5 L 351.253906 302.25 L 353.21875 300.933594 L 355.21875 299.558594 L 357.238281 298.117188 L 359.277344 296.605469 L 361.332031 295.023438 L 363.390625 293.371094 L 365.449219 291.644531 L 367.503906 289.839844 L 369.546875 287.960938 L 371.570313 286.007813 L 373.566406 283.972656 L 375.53125 281.863281 L 377.460938 279.675781 L 379.34375 277.414063 L 381.175781 275.074219 L 382.949219 272.667969 L 384.660156 270.1875 L 386.300781 267.640625 L 387.867188 265.027344 L 389.351563 262.355469 L 390.746094 259.628906 L 392.054688 256.84375 L 393.261719 254.015625 L 394.371094 251.144531 L 395.375 248.234375 L 396.269531 245.292969 L 397.050781 242.324219 L 397.71875 239.335938 L 398.269531 236.335938 L 398.703125 233.328125 L 399.015625 230.320313 L 399.207031 227.320313 L 399.28125 224.335938 L 399.230469 221.371094 L 399.0625 218.433594 L 398.773438 215.53125 L 398.371094 212.667969 L 397.851563 209.851563 L 397.222656 207.09375 L 396.480469 204.394531 L 395.636719 201.757813 L 394.695313 199.195313 L 393.652344 196.710938 L 392.519531 194.308594 L 391.300781 191.988281 L 390 189.761719 L 388.621094 187.628906 L 387.175781 185.59375 L 385.667969 183.660156 L 384.097656 181.828125 L 382.480469 180.101563 L 380.816406 178.480469 L 379.109375 176.96875 L 377.375 175.5625 L 375.613281 174.265625 L 373.828125 173.078125 L 372.03125 172 L 370.222656 171.023438 L 368.414063 170.15625 L 366.609375 169.390625 L 364.808594 168.726563 L 363.023438 168.164063 L 361.253906 167.695313 L 359.507813 167.320313 L 357.789063 167.039063 L 356.097656 166.84375 L 354.441406 166.734375 L 352.820313 166.703125 L 351.242188 166.746094 L 349.703125 166.867188 L 348.210938 167.054688 L 346.765625 167.308594 L 345.367188 167.621094 L 344.019531 167.992188 L 342.722656 168.417969 L 341.476563 168.894531 L 340.285156 169.414063 L 339.148438 169.976563 L 338.0625 170.574219 L 337.027344 171.210938 L 336.046875 171.875 L 335.117188 172.566406 L 334.238281 173.285156 L 333.410156 174.023438 L 332.632813 174.777344 L 331.902344 175.550781 L 331.21875 176.332031 L 330.582031 177.125 L 329.984375 177.925781 L 329.433594 178.730469 L 328.921875 179.539063 L 328.449219 180.347656 L 328.015625 181.15625 L 327.613281 181.960938 L 327.25 182.757813 L 326.914063 183.550781 L 326.609375 184.332031 L 326.335938 185.109375 L 326.085938 185.871094 L 325.859375 186.621094 L 325.660156 187.359375 L 325.480469 188.082031 L 325.320313 188.792969 L 325.179688 189.484375 L 325.054688 190.160156 L 324.945313 190.816406 L 324.851563 191.457031 L 324.769531 192.074219 L 324.695313 192.675781 L 324.636719 193.257813 L 324.585938 193.816406 L 324.542969 194.351563 L 324.503906 194.867188 L 324.476563 195.363281 L 324.453125 195.832031 L 324.433594 196.28125 L 324.417969 196.707031 L 324.402344 197.105469 L 324.394531 197.484375 L 324.386719 197.835938 L 324.382813 198.164063 L 324.378906 198.46875 L 324.375 198.746094 L 324.371094 199 Z M 324.371094 200.128906 "/>
</g>
</svg>
