<?xml version="1.0" encoding="UTF-8"?>
<svg xmlns="http://www.w3.org/2000/svg" xmlns:xlink="http://www.w3.org/1999/xlink" width="646pt" height="403pt" viewBox="0 0 646 403" version="1.1">
<defs>
<clipPath id="clip1">
  <path d="M 121.5 0 L 524.5 0 L 524.5 403 L 121.5 403 Z M 121.5 0 "/>
</clipPath>
<clipPath id="clip2">
  <path d="M 129.71875 5.480469 L 519.019531 5.480469 L 519.019531 394.78125 L 129.71875 394.78125 Z M 129.71875 5.480469 "/>
</clipPath>
</defs>
<g id="surface36">
<rect x="0" y="0" width="646" height="403" style="fill:rgb(100%,100%,100%);fill-opacity:1;stroke:none;"/>
<g clip-path="url(#clip1)" clip-rule="nonzero">
<path style="fill-rule:nonzero;fill:rgb(100%,100%,100%);fill-opacity:1;stroke-width:1.066978;stroke-linecap:round;stroke-linejoin:round;stroke:rgb(100%,100%,100%);stroke-opacity:1;stroke-miterlimit:10;" d="M 121.5 403 L 524.5 403 L 524.5 0 L 121.5 0 Z M 121.5 403 "/>
</g>
<g clip-path="url(#clip2)" clip-rule="nonzero">
<path style=" stroke:none;fill-rule:nonzero;fill:rgb(100%,100%,100%);fill-opacity:1;" d="M 129.71875 394.78125 L 519.019531 394.78125 L 519.019531 5.480469 L 129.71875 5.480469 Z M 129.71875 394.78125 "/>
</g>
<path style=" stroke:none;fill-rule:nonzero;fill:rgb(100%,75.294118%,79.607843%);fill-opacity:1;" d="M 403.230469 200.128906 L 403.734375 200.925781 L 404.230469 201.726563 L 404.710938 202.542969 L 405.179688 203.367188 L 405.636719 204.199219 L 406.078125 205.042969 L 406.507813 205.890625 L 406.921875 206.75 L 407.324219 207.621094 L 407.714844 208.496094 L 408.085938 209.382813 L 408.445313 210.273438 L 408.789063 211.171875 L 409.121094 212.078125 L 409.433594 212.992188 L 409.734375 213.914063 L 410.019531 214.839844 L 410.285156 215.773438 L 410.539063 216.710938 L 410.777344 217.65625 L 410.996094 218.605469 L 411.203125 219.558594 L 411.390625 220.515625 L 411.5625 221.480469 L 411.71875 222.445313 L 411.855469 223.414063 L 411.980469 224.390625 L 412.085938 225.367188 L 412.171875 226.34375 L 412.242188 227.328125 L 412.296875 228.3125 L 412.335938 229.296875 L 412.355469 230.285156 L 412.355469 231.269531 L 412.339844 232.261719 L 412.308594 233.25 L 412.257813 234.238281 L 412.191406 235.226563 L 412.105469 236.214844 L 412.003906 237.203125 L 411.882813 238.1875 L 411.746094 239.171875 L 411.59375 240.15625 L 411.421875 241.136719 L 411.230469 242.113281 L 411.027344 243.089844 L 410.800781 244.0625 L 410.5625 245.027344 L 410.304688 245.992188 L 410.027344 246.953125 L 409.738281 247.910156 L 409.429688 248.863281 L 409.105469 249.808594 L 408.761719 250.75 L 408.40625 251.683594 L 408.03125 252.613281 L 407.640625 253.539063 L 407.234375 254.457031 L 406.816406 255.367188 L 406.378906 256.269531 L 405.925781 257.167969 L 405.457031 258.058594 L 404.976563 258.941406 L 404.480469 259.816406 L 403.96875 260.683594 L 403.441406 261.542969 L 402.902344 262.390625 L 402.351563 263.234375 L 401.785156 264.070313 L 401.207031 264.894531 L 400.613281 265.710938 L 400.007813 266.519531 L 399.390625 267.320313 L 398.761719 268.109375 L 398.121094 268.890625 L 397.472656 269.664063 L 396.808594 270.425781 L 396.132813 271.179688 L 395.449219 271.925781 L 394.757813 272.664063 L 394.054688 273.390625 L 393.339844 274.109375 L 392.621094 274.820313 L 391.890625 275.523438 L 391.152344 276.214844 L 390.40625 276.902344 L 389.652344 277.578125 L 388.890625 278.25 L 388.121094 278.910156 L 387.347656 279.566406 L 386.566406 280.214844 L 385.78125 280.859375 L 384.988281 281.492188 L 384.191406 282.125 L 383.390625 282.75 L 382.585938 283.367188 L 381.773438 283.984375 L 380.960938 284.59375 L 380.144531 285.203125 L 379.320313 285.808594 L 377.671875 287.011719 L 376.839844 287.609375 L 376.007813 288.210938 L 375.175781 288.808594 L 374.339844 289.410156 L 373.5 290.011719 L 372.664063 290.617188 L 371.820313 291.222656 L 370.980469 291.832031 L 370.136719 292.449219 L 369.292969 293.070313 L 368.445313 293.699219 L 367.597656 294.335938 L 366.75 294.976563 L 365.902344 295.628906 L 365.050781 296.292969 L 364.195313 296.964844 L 363.34375 297.652344 L 362.488281 298.347656 L 361.628906 299.0625 L 360.769531 299.789063 L 359.90625 300.53125 L 359.039063 301.292969 L 358.171875 302.070313 L 357.296875 302.871094 L 356.421875 303.6875 L 355.539063 304.527344 L 354.652344 305.390625 L 353.761719 306.277344 L 352.863281 307.1875 L 351.960938 308.125 L 351.046875 309.089844 L 350.128906 310.085938 L 349.199219 311.109375 L 348.261719 312.167969 L 347.3125 313.257813 L 346.355469 314.386719 L 345.382813 315.550781 L 344.398438 316.753906 L 343.402344 318 L 342.390625 319.292969 L 341.359375 320.636719 L 340.316406 322.027344 L 339.25 323.480469 L 338.167969 324.996094 L 337.0625 326.585938 L 335.9375 328.25 L 334.789063 330.011719 L 333.613281 331.882813 L 332.410156 333.882813 L 331.175781 336.046875 L 329.90625 338.429688 L 328.601563 341.113281 L 327.253906 344.265625 L 325.851563 348.304688 L 324.371094 355.851563 L 322.878906 349.097656 L 321.472656 344.824219 L 320.125 341.570313 L 318.816406 338.824219 L 317.546875 336.402344 L 316.3125 334.203125 L 315.105469 332.175781 L 313.929688 330.285156 L 312.777344 328.507813 L 311.652344 326.824219 L 310.546875 325.222656 L 309.464844 323.695313 L 308.398438 322.230469 L 307.351563 320.828125 L 306.324219 319.476563 L 305.308594 318.171875 L 304.3125 316.917969 L 303.328125 315.707031 L 302.355469 314.535156 L 301.398438 313.398438 L 300.449219 312.300781 L 299.511719 311.238281 L 298.582031 310.207031 L 297.664063 309.207031 L 296.75 308.234375 L 295.847656 307.289063 L 294.949219 306.375 L 294.058594 305.480469 L 293.171875 304.613281 L 292.292969 303.769531 L 291.417969 302.945313 L 290.546875 302.144531 L 289.675781 301.359375 L 288.8125 300.597656 L 287.949219 299.847656 L 287.089844 299.117188 L 286.234375 298.402344 L 285.378906 297.699219 L 284.523438 297.011719 L 283.671875 296.332031 L 282.824219 295.667969 L 281.972656 295.011719 L 281.125 294.367188 L 280.28125 293.730469 L 279.433594 293.097656 L 277.746094 291.855469 L 275.226563 290.027344 L 273.554688 288.824219 L 271.890625 287.621094 L 271.0625 287.023438 L 270.234375 286.421875 L 268.59375 285.210938 L 267.773438 284.601563 L 266.960938 283.988281 L 266.152344 283.375 L 265.34375 282.753906 L 264.542969 282.128906 L 263.746094 281.5 L 262.957031 280.863281 L 262.167969 280.21875 L 261.390625 279.570313 L 260.613281 278.914063 L 259.847656 278.253906 L 259.085938 277.582031 L 258.332031 276.90625 L 257.585938 276.21875 L 256.847656 275.527344 L 256.117188 274.824219 L 255.394531 274.113281 L 254.683594 273.394531 L 253.976563 272.667969 L 253.285156 271.929688 L 252.601563 271.1875 L 251.925781 270.429688 L 251.261719 269.667969 L 250.609375 268.898438 L 249.96875 268.117188 L 249.339844 267.324219 L 248.722656 266.527344 L 248.117188 265.71875 L 247.523438 264.902344 L 246.945313 264.078125 L 246.378906 263.246094 L 245.824219 262.402344 L 245.285156 261.550781 L 244.757813 260.691406 L 244.246094 259.828125 L 243.746094 258.953125 L 243.265625 258.070313 L 242.796875 257.179688 L 242.34375 256.285156 L 241.90625 255.378906 L 241.484375 254.46875 L 241.078125 253.550781 L 240.683594 252.628906 L 240.3125 251.699219 L 239.953125 250.765625 L 239.609375 249.824219 L 239.285156 248.878906 L 238.972656 247.925781 L 238.679688 246.96875 L 238.40625 246.011719 L 238.148438 245.046875 L 237.90625 244.078125 L 237.679688 243.105469 L 237.472656 242.128906 L 237.28125 241.152344 L 237.109375 240.171875 L 236.953125 239.191406 L 236.816406 238.207031 L 236.695313 237.21875 L 236.589844 236.234375 L 236.503906 235.246094 L 236.4375 234.253906 L 236.386719 233.265625 L 236.351563 232.277344 L 236.335938 231.289063 L 236.335938 230.300781 L 236.355469 229.3125 L 236.390625 228.328125 L 236.441406 227.34375 L 236.511719 226.363281 L 236.601563 225.382813 L 236.703125 224.40625 L 236.824219 223.429688 L 236.960938 222.460938 L 237.117188 221.492188 L 237.289063 220.53125 L 237.476563 219.570313 L 237.679688 218.617188 L 237.898438 217.667969 L 238.132813 216.722656 L 238.386719 215.785156 L 238.652344 214.851563 L 238.9375 213.925781 L 239.234375 213.003906 L 239.550781 212.089844 L 239.878906 211.183594 L 240.222656 210.28125 L 240.578125 209.390625 L 240.953125 208.503906 L 241.339844 207.625 L 241.742188 206.757813 L 242.15625 205.898438 L 242.582031 205.046875 L 243.027344 204.203125 L 243.480469 203.367188 L 243.949219 202.542969 L 244.429688 201.730469 L 244.921875 200.925781 L 245.429688 200.128906 L 245.945313 199.34375 L 246.476563 198.570313 L 247.015625 197.808594 L 247.566406 197.054688 L 248.128906 196.3125 L 248.703125 195.582031 L 249.289063 194.863281 L 249.882813 194.15625 L 250.488281 193.460938 L 251.101563 192.773438 L 251.722656 192.101563 L 252.355469 191.441406 L 252.996094 190.792969 L 253.644531 190.160156 L 254.300781 189.535156 L 254.96875 188.925781 L 255.640625 188.328125 L 256.320313 187.742188 L 257.007813 187.167969 L 257.703125 186.609375 L 258.402344 186.0625 L 259.109375 185.53125 L 259.824219 185.007813 L 260.542969 184.503906 L 261.265625 184.007813 L 261.996094 183.527344 L 262.730469 183.0625 L 263.464844 182.609375 L 264.207031 182.167969 L 264.953125 181.742188 L 265.703125 181.328125 L 266.457031 180.929688 L 267.214844 180.542969 L 267.972656 180.167969 L 268.734375 179.808594 L 269.496094 179.464844 L 270.261719 179.132813 L 271.027344 178.8125 L 271.796875 178.507813 L 272.566406 178.214844 L 273.335938 177.9375 L 274.105469 177.671875 L 274.875 177.417969 L 275.644531 177.179688 L 276.417969 176.953125 L 277.1875 176.738281 L 277.953125 176.539063 L 278.722656 176.351563 L 279.488281 176.175781 L 280.253906 176.015625 L 281.015625 175.863281 L 281.777344 175.726563 L 282.535156 175.601563 L 283.292969 175.492188 L 284.042969 175.390625 L 284.792969 175.300781 L 285.539063 175.226563 L 286.285156 175.160156 L 287.023438 175.109375 L 287.757813 175.066406 L 288.492188 175.035156 L 289.21875 175.019531 L 289.941406 175.011719 L 290.65625 175.011719 L 291.371094 175.027344 L 292.078125 175.050781 L 292.78125 175.085938 L 293.476563 175.128906 L 294.167969 175.1875 L 294.851563 175.25 L 295.53125 175.324219 L 296.207031 175.410156 L 296.871094 175.503906 L 297.53125 175.605469 L 298.183594 175.71875 L 298.832031 175.839844 L 299.472656 175.96875 L 300.105469 176.105469 L 300.730469 176.253906 L 301.347656 176.40625 L 301.957031 176.566406 L 302.5625 176.738281 L 303.15625 176.914063 L 303.742188 177.097656 L 304.324219 177.289063 L 304.894531 177.488281 L 305.457031 177.691406 L 306.011719 177.90625 L 306.558594 178.121094 L 307.097656 178.34375 L 307.628906 178.574219 L 308.152344 178.808594 L 308.664063 179.050781 L 309.167969 179.296875 L 309.664063 179.546875 L 310.152344 179.800781 L 310.628906 180.0625 L 311.101563 180.324219 L 311.5625 180.59375 L 312.015625 180.867188 L 312.457031 181.140625 L 312.890625 181.421875 L 313.316406 181.703125 L 313.734375 181.992188 L 314.144531 182.28125 L 314.542969 182.570313 L 314.933594 182.867188 L 315.3125 183.164063 L 315.6875 183.460938 L 316.050781 183.761719 L 316.40625 184.066406 L 316.753906 184.371094 L 317.089844 184.675781 L 317.417969 184.984375 L 317.738281 185.292969 L 318.050781 185.601563 L 318.355469 185.910156 L 318.648438 186.222656 L 318.9375 186.535156 L 319.214844 186.847656 L 319.484375 187.160156 L 319.746094 187.472656 L 320 187.785156 L 320.246094 188.097656 L 320.484375 188.410156 L 320.714844 188.722656 L 320.933594 189.03125 L 321.148438 189.34375 L 321.355469 189.65625 L 321.554688 189.964844 L 321.746094 190.277344 L 321.929688 190.585938 L 322.109375 190.894531 L 322.277344 191.203125 L 322.441406 191.511719 L 322.597656 191.820313 L 322.746094 192.125 L 322.890625 192.433594 L 323.023438 192.742188 L 323.152344 193.050781 L 323.277344 193.359375 L 323.394531 193.667969 L 323.503906 193.980469 L 323.605469 194.292969 L 323.703125 194.613281 L 323.796875 194.933594 L 323.878906 195.257813 L 323.960938 195.589844 L 324.03125 195.933594 L 324.101563 196.285156 L 324.160156 196.652344 L 324.214844 197.039063 L 324.261719 197.457031 L 324.304688 197.914063 L 324.335938 198.4375 L 324.359375 199.089844 L 324.371094 200.128906 L 324.375 199.492188 L 324.398438 198.726563 L 324.429688 198.15625 L 324.46875 197.671875 L 324.515625 197.238281 L 324.566406 196.835938 L 324.628906 196.460938 L 324.691406 196.101563 L 324.765625 195.753906 L 324.84375 195.417969 L 324.925781 195.089844 L 325.015625 194.765625 L 325.113281 194.449219 L 325.214844 194.132813 L 325.324219 193.820313 L 325.4375 193.511719 L 325.558594 193.203125 L 325.6875 192.894531 L 325.820313 192.585938 L 325.960938 192.28125 L 326.109375 191.972656 L 326.261719 191.667969 L 326.425781 191.359375 L 326.59375 191.050781 L 326.769531 190.742188 L 326.949219 190.4375 L 327.140625 190.125 L 327.335938 189.816406 L 327.542969 189.507813 L 327.753906 189.199219 L 327.972656 188.886719 L 328.199219 188.574219 L 328.4375 188.265625 L 328.679688 187.953125 L 328.929688 187.640625 L 329.191406 187.332031 L 329.457031 187.019531 L 329.734375 186.707031 L 330.015625 186.398438 L 330.308594 186.089844 L 330.609375 185.777344 L 330.921875 185.46875 L 331.238281 185.164063 L 331.5625 184.855469 L 331.898438 184.550781 L 332.242188 184.246094 L 332.59375 183.945313 L 332.957031 183.644531 L 333.328125 183.347656 L 333.707031 183.050781 L 334.09375 182.757813 L 334.488281 182.464844 L 334.894531 182.179688 L 335.308594 181.894531 L 335.730469 181.609375 L 336.164063 181.332031 L 336.605469 181.054688 L 337.054688 180.785156 L 337.511719 180.515625 L 337.980469 180.25 L 338.453125 179.992188 L 338.9375 179.738281 L 339.433594 179.484375 L 339.933594 179.242188 L 340.445313 179 L 340.960938 178.765625 L 341.488281 178.535156 L 342.027344 178.3125 L 342.570313 178.09375 L 343.121094 177.882813 L 343.683594 177.675781 L 344.25 177.480469 L 344.828125 177.285156 L 345.414063 177.101563 L 346.003906 176.925781 L 346.605469 176.753906 L 347.210938 176.589844 L 347.828125 176.4375 L 348.449219 176.289063 L 349.078125 176.152344 L 349.714844 176.019531 L 350.359375 175.898438 L 351.011719 175.785156 L 351.667969 175.683594 L 352.332031 175.585938 L 353.003906 175.5 L 353.679688 175.425781 L 354.363281 175.359375 L 355.050781 175.300781 L 355.746094 175.253906 L 356.445313 175.21875 L 357.148438 175.191406 L 357.859375 175.179688 L 358.574219 175.171875 L 359.296875 175.179688 L 360.019531 175.195313 L 360.75 175.226563 L 361.484375 175.265625 L 362.222656 175.316406 L 362.960938 175.378906 L 363.707031 175.453125 L 364.453125 175.539063 L 365.207031 175.636719 L 365.960938 175.746094 L 366.714844 175.867188 L 367.476563 176.003906 L 368.238281 176.152344 L 369 176.3125 L 369.765625 176.484375 L 370.53125 176.667969 L 371.296875 176.867188 L 372.066406 177.078125 L 372.835938 177.300781 L 373.605469 177.539063 L 374.375 177.785156 L 375.144531 178.050781 L 375.910156 178.328125 L 376.679688 178.617188 L 377.445313 178.917969 L 378.210938 179.234375 L 378.976563 179.566406 L 379.738281 179.90625 L 380.5 180.265625 L 381.257813 180.632813 L 382.011719 181.015625 L 382.765625 181.414063 L 383.515625 181.824219 L 384.261719 182.25 L 385.003906 182.683594 L 385.742188 183.136719 L 386.472656 183.601563 L 387.203125 184.078125 L 387.925781 184.570313 L 388.644531 185.074219 L 389.359375 185.589844 L 390.066406 186.121094 L 390.765625 186.664063 L 391.460938 187.21875 L 392.148438 187.789063 L 392.832031 188.371094 L 393.503906 188.96875 L 394.171875 189.574219 L 394.828125 190.195313 L 395.480469 190.828125 L 396.121094 191.472656 L 396.753906 192.132813 L 397.378906 192.800781 L 397.992188 193.484375 L 398.597656 194.175781 L 399.195313 194.882813 L 399.78125 195.597656 L 400.355469 196.324219 L 400.917969 197.066406 L 401.472656 197.816406 L 402.015625 198.578125 L 402.546875 199.347656 L 403.066406 200.128906 Z M 403.230469 200.128906 "/>
</g>
</svg>
