<?xml version="1.0" encoding="UTF-8"?>
<svg xmlns="http://www.w3.org/2000/svg" xmlns:xlink="http://www.w3.org/1999/xlink" width="646pt" height="403pt" viewBox="0 0 646 403" version="1.1">
<defs>
<clipPath id="clip1">
  <path d="M 8.21875 5.480469 L 640.519531 5.480469 L 640.519531 394.78125 L 8.21875 394.78125 Z M 8.21875 5.480469 "/>
</clipPath>
</defs>
<g id="surface6">
<rect x="0" y="0" width="646" height="403" style="fill:rgb(100%,100%,100%);fill-opacity:1;stroke:none;"/>
<rect x="0" y="0" width="646" height="403" style="fill:rgb(100%,100%,100%);fill-opacity:1;stroke:none;"/>
<path style="fill:none;stroke-width:1.066978;stroke-linecap:round;stroke-linejoin:round;stroke:rgb(100%,100%,100%);stroke-opacity:1;stroke-miterlimit:10;" d="M 0 403 L 646 403 L 646 0 L 0 0 Z M 0 403 "/>
<g clip-path="url(#clip1)" clip-rule="nonzero">
<path style=" stroke:none;fill-rule:nonzero;fill:rgb(100%,100%,100%);fill-opacity:1;" d="M 8.21875 394.78125 L 640.519531 394.78125 L 640.519531 5.480469 L 8.21875 5.480469 Z M 8.21875 394.78125 "/>
</g>
<path style="fill:none;stroke-width:8.535827;stroke-linecap:round;stroke-linejoin:round;stroke:rgb(100%,75.294118%,79.607843%);stroke-opacity:1;stroke-miterlimit:10;" d="M 217.335938 55.347656 L 217.53125 84.597656 L 217.730469 108.972656 L 217.929688 129.59375 L 218.128906 147.273438 L 218.324219 162.59375 L 218.523438 176 L 218.722656 187.828125 L 218.921875 198.34375 L 219.117188 207.75 L 219.316406 216.21875 L 219.515625 223.878906 L 219.714844 230.839844 L 219.910156 237.199219 L 220.109375 243.027344 L 220.308594 248.390625 L 220.507813 253.339844 L 220.703125 257.921875 L 220.902344 262.179688 L 221.101563 266.140625 L 221.296875 269.839844 L 221.496094 273.300781 L 221.695313 276.542969 L 221.894531 279.589844 L 222.089844 282.457031 L 222.289063 285.160156 L 222.488281 287.714844 L 222.6875 290.128906 L 222.882813 292.417969 L 223.082031 294.589844 L 223.28125 296.652344 L 223.480469 298.613281 L 223.675781 300.480469 L 223.875 302.261719 L 224.074219 303.964844 L 224.273438 305.589844 L 224.46875 307.140625 L 224.667969 308.628906 L 224.867188 310.058594 L 225.066406 311.425781 L 225.261719 312.738281 L 225.460938 314 L 225.660156 315.210938 L 225.859375 316.378906 L 226.054688 317.503906 L 226.253906 318.585938 L 226.453125 319.632813 L 226.652344 320.640625 L 226.847656 321.613281 L 227.046875 322.554688 L 227.246094 323.460938 L 227.445313 324.339844 L 227.640625 325.191406 L 227.839844 326.015625 L 228.039063 326.8125 L 228.234375 327.585938 L 228.433594 328.335938 L 228.632813 329.066406 L 228.832031 329.769531 L 229.027344 330.457031 L 229.226563 331.121094 L 229.425781 331.769531 L 229.625 332.398438 L 229.820313 333.011719 L 230.019531 333.605469 L 230.21875 334.1875 L 230.417969 334.75 L 230.613281 335.300781 L 230.8125 335.835938 L 231.011719 336.359375 L 231.210938 336.867188 L 231.40625 337.363281 L 231.605469 337.847656 L 231.804688 338.320313 L 232.003906 338.785156 L 232.199219 339.234375 L 232.398438 339.675781 L 232.597656 340.105469 L 232.796875 340.523438 L 232.992188 340.933594 L 233.191406 341.335938 L 233.390625 341.730469 L 233.589844 342.113281 L 233.785156 342.488281 L 233.984375 342.859375 L 234.183594 343.21875 L 234.382813 343.570313 L 234.578125 343.917969 L 234.777344 344.253906 L 234.976563 344.585938 L 235.171875 344.910156 L 235.371094 345.230469 L 235.570313 345.542969 L 235.769531 345.847656 L 235.964844 346.148438 L 236.164063 346.445313 L 236.363281 346.734375 L 236.5625 347.015625 L 236.757813 347.292969 L 236.957031 347.566406 L 237.15625 347.835938 L 237.355469 348.101563 L 237.550781 348.359375 L 237.75 348.613281 L 237.949219 348.863281 L 238.148438 349.109375 L 238.34375 349.347656 L 238.542969 349.585938 L 238.742188 349.820313 L 238.941406 350.046875 L 239.136719 350.273438 L 239.335938 350.496094 L 239.535156 350.714844 L 239.734375 350.929688 L 239.929688 351.140625 L 240.128906 351.347656 L 240.328125 351.550781 L 240.527344 351.75 L 240.722656 351.949219 L 240.921875 352.144531 L 241.121094 352.335938 L 241.320313 352.523438 L 241.515625 352.710938 L 241.714844 352.894531 L 241.914063 353.074219 L 242.109375 353.253906 L 242.308594 353.429688 L 242.507813 353.601563 L 242.707031 353.769531 L 242.902344 353.9375 L 243.101563 354.105469 L 243.300781 354.265625 L 243.5 354.429688 L 243.695313 354.585938 L 244.09375 354.898438 L 244.292969 355.046875 L 244.488281 355.199219 L 244.6875 355.347656 L 245.085938 355.636719 L 245.28125 355.777344 L 245.679688 356.058594 L 245.878906 356.191406 L 246.074219 356.328125 L 246.472656 356.59375 L 246.671875 356.722656 L 246.867188 356.851563 L 247.464844 357.226563 L 247.660156 357.347656 L 247.859375 357.46875 L 248.058594 357.585938 L 248.253906 357.703125 L 248.453125 357.820313 L 248.851563 358.046875 L 249.046875 358.160156 L 249.644531 358.488281 L 249.839844 358.59375 L 250.238281 358.804688 L 250.4375 358.90625 L 250.632813 359.011719 L 250.832031 359.109375 L 251.03125 359.210938 L 251.230469 359.308594 L 251.425781 359.40625 L 251.824219 359.601563 L 252.023438 359.695313 L 252.21875 359.789063 L 252.417969 359.878906 L 252.617188 359.972656 L 252.816406 360.0625 L 253.011719 360.152344 L 253.210938 360.242188 L 253.609375 360.414063 L 253.804688 360.5 L 254.203125 360.671875 L 254.402344 360.753906 L 254.597656 360.835938 L 254.996094 361 L 255.191406 361.078125 L 255.789063 361.3125 L 255.984375 361.390625 L 256.183594 361.46875 L 256.582031 361.617188 L 256.777344 361.691406 L 256.976563 361.765625 L 257.175781 361.835938 L 257.375 361.910156 L 257.570313 361.980469 L 258.167969 362.191406 L 258.363281 362.257813 L 258.5625 362.328125 L 258.960938 362.460938 L 259.15625 362.527344 L 259.355469 362.59375 L 259.554688 362.65625 L 259.753906 362.722656 L 259.949219 362.785156 L 260.546875 362.972656 L 260.742188 363.035156 L 260.941406 363.097656 L 261.140625 363.15625 L 261.339844 363.21875 L 261.535156 363.277344 L 261.933594 363.394531 L 262.128906 363.453125 L 262.328125 363.511719 L 262.527344 363.566406 L 262.726563 363.625 L 262.921875 363.679688 L 263.519531 363.84375 L 263.714844 363.898438 L 264.113281 364.007813 L 264.3125 364.058594 L 264.507813 364.113281 L 265.105469 364.265625 L 265.300781 364.316406 L 265.898438 364.46875 L 266.09375 364.515625 L 266.292969 364.566406 L 266.492188 364.613281 L 266.691406 364.664063 L 266.886719 364.710938 L 267.484375 364.851563 L 267.679688 364.898438 L 267.878906 364.945313 L 268.078125 364.988281 L 268.277344 365.035156 L 268.472656 365.082031 L 268.871094 365.167969 L 269.066406 365.214844 L 269.664063 365.34375 L 269.859375 365.386719 L 270.058594 365.429688 L 270.257813 365.46875 L 270.457031 365.511719 L 270.652344 365.554688 L 270.851563 365.59375 L 271.050781 365.636719 L 271.25 365.675781 L 271.445313 365.714844 L 271.644531 365.757813 L 272.042969 365.835938 L 272.238281 365.875 L 272.835938 365.992188 L 273.03125 366.027344 L 273.429688 366.105469 L 273.628906 366.140625 L 273.824219 366.179688 L 274.023438 366.214844 L 274.222656 366.253906 L 274.421875 366.289063 L 274.617188 366.324219 L 275.015625 366.394531 L 275.214844 366.433594 L 275.410156 366.46875 L 275.609375 366.5 L 275.808594 366.535156 L 276.003906 366.570313 L 276.402344 366.640625 L 276.601563 366.671875 L 276.796875 366.707031 L 276.996094 366.738281 L 277.195313 366.773438 L 277.394531 366.804688 L 277.589844 366.839844 L 277.988281 366.902344 L 278.1875 366.9375 L 278.382813 366.96875 L 278.980469 367.0625 L 279.175781 367.09375 L 279.773438 367.1875 L 279.96875 367.214844 L 280.367188 367.277344 L 280.566406 367.304688 L 280.761719 367.335938 L 280.960938 367.363281 L 281.160156 367.394531 L 281.359375 367.421875 L 281.554688 367.453125 L 281.753906 367.480469 L 281.953125 367.511719 L 282.148438 367.539063 L 282.746094 367.621094 L 282.941406 367.648438 L 283.140625 367.679688 L 283.539063 367.734375 L 283.734375 367.757813 L 284.332031 367.839844 L 284.527344 367.867188 L 284.726563 367.894531 L 284.925781 367.917969 L 285.125 367.945313 L 285.320313 367.972656 L 285.519531 367.996094 L 285.71875 368.023438 L 285.917969 368.046875 L 286.113281 368.074219 L 286.3125 368.097656 L 286.511719 368.125 L 286.710938 368.148438 L 286.90625 368.171875 L 287.105469 368.199219 L 287.503906 368.246094 L 287.699219 368.269531 L 287.898438 368.292969 L 288.097656 368.320313 L 288.296875 368.34375 L 288.492188 368.367188 L 288.890625 368.414063 L 289.085938 368.4375 L 289.484375 368.484375 L 289.683594 368.503906 L 289.878906 368.527344 L 290.476563 368.597656 L 290.671875 368.617188 L 291.070313 368.664063 L 291.269531 368.683594 L 291.464844 368.707031 L 291.664063 368.726563 L 292.0625 368.773438 L 292.257813 368.792969 L 292.457031 368.8125 L 292.65625 368.835938 L 292.855469 368.855469 L 293.050781 368.878906 L 293.449219 368.917969 L 293.648438 368.941406 L 293.84375 368.960938 L 294.242188 369 L 294.441406 369.023438 L 294.636719 369.042969 L 295.234375 369.101563 L 295.429688 369.121094 L 295.828125 369.160156 L 296.023438 369.179688 L 296.621094 369.238281 L 296.816406 369.257813 L 297.214844 369.296875 L 297.414063 369.3125 L 297.609375 369.332031 L 298.007813 369.371094 L 298.207031 369.386719 L 298.402344 369.40625 L 298.601563 369.425781 L 298.800781 369.441406 L 299 369.460938 L 299.195313 369.480469 L 299.394531 369.496094 L 299.59375 369.515625 L 299.792969 369.53125 L 299.988281 369.550781 L 300.1875 369.566406 L 300.386719 369.585938 L 300.585938 369.601563 L 300.78125 369.621094 L 300.980469 369.636719 L 301.179688 369.65625 L 301.378906 369.671875 L 301.574219 369.6875 L 301.773438 369.707031 L 302.171875 369.738281 L 302.367188 369.757813 L 302.765625 369.789063 L 302.960938 369.804688 L 303.160156 369.824219 L 303.558594 369.855469 L 303.753906 369.871094 L 304.351563 369.917969 L 304.546875 369.9375 L 305.144531 369.984375 L 305.339844 370 L 305.9375 370.046875 L 306.132813 370.058594 L 306.730469 370.105469 L 306.925781 370.121094 L 307.523438 370.167969 L 307.71875 370.179688 L 308.316406 370.226563 L 308.511719 370.238281 L 308.910156 370.269531 L 309.105469 370.285156 L 309.304688 370.296875 L 309.503906 370.3125 L 309.703125 370.324219 L 309.898438 370.339844 L 310.097656 370.355469 L 310.296875 370.367188 L 310.496094 370.382813 L 310.691406 370.394531 L 311.089844 370.425781 L 311.289063 370.4375 L 311.484375 370.453125 L 311.683594 370.464844 L 311.882813 370.480469 L 312.082031 370.492188 L 312.277344 370.503906 L 312.476563 370.519531 L 312.675781 370.53125 L 312.875 370.546875 L 313.070313 370.558594 L 313.269531 370.574219 L 313.667969 370.597656 L 313.863281 370.613281 L 314.261719 370.636719 L 314.460938 370.652344 L 314.65625 370.664063 L 315.054688 370.6875 L 315.253906 370.703125 L 315.449219 370.714844 L 315.847656 370.738281 L 316.042969 370.75 L 316.242188 370.765625 L 316.640625 370.789063 L 316.835938 370.800781 L 317.234375 370.824219 L 317.433594 370.839844 L 317.628906 370.851563 L 318.226563 370.886719 L 318.421875 370.898438 L 319.019531 370.933594 L 319.214844 370.945313 L 319.8125 370.980469 L 320.007813 370.992188 L 320.605469 371.027344 L 320.800781 371.039063 L 321 371.050781 L 321.199219 371.058594 L 321.398438 371.070313 L 321.59375 371.082031 L 322.191406 371.117188 L 322.386719 371.128906 L 322.585938 371.136719 L 322.785156 371.148438 L 322.980469 371.160156 L 323.378906 371.183594 L 323.578125 371.191406 L 323.773438 371.203125 L 324.171875 371.226563 L 324.371094 371.234375 L 324.566406 371.246094 L 324.765625 371.257813 L 324.964844 371.265625 L 325.164063 371.277344 L 325.359375 371.289063 L 325.558594 371.296875 L 325.957031 371.320313 L 326.152344 371.328125 L 326.550781 371.351563 L 326.75 371.359375 L 326.945313 371.371094 L 327.144531 371.378906 L 327.542969 371.402344 L 327.738281 371.410156 L 327.9375 371.421875 L 328.136719 371.429688 L 328.335938 371.441406 L 328.53125 371.449219 L 328.730469 371.460938 L 328.929688 371.46875 L 329.128906 371.480469 L 329.324219 371.488281 L 329.523438 371.5 L 329.722656 371.507813 L 329.917969 371.519531 L 330.117188 371.527344 L 330.316406 371.539063 L 330.515625 371.546875 L 330.710938 371.558594 L 331.109375 371.574219 L 331.308594 371.585938 L 331.503906 371.59375 L 331.703125 371.605469 L 332.101563 371.621094 L 332.296875 371.632813 L 332.496094 371.640625 L 332.695313 371.652344 L 332.894531 371.660156 L 333.089844 371.667969 L 333.289063 371.679688 L 333.6875 371.695313 L 333.882813 371.707031 L 334.480469 371.730469 L 334.675781 371.742188 L 335.273438 371.765625 L 335.46875 371.777344 L 336.066406 371.800781 L 336.261719 371.8125 L 336.660156 371.828125 L 336.855469 371.835938 L 337.054688 371.84375 L 337.253906 371.855469 L 337.453125 371.863281 L 337.648438 371.871094 L 338.246094 371.894531 L 338.441406 371.90625 L 339.039063 371.929688 L 339.234375 371.9375 L 339.832031 371.960938 L 340.027344 371.96875 L 340.226563 371.976563 L 340.425781 371.988281 L 340.625 371.996094 L 340.820313 372.003906 L 341.417969 372.027344 L 341.613281 372.035156 L 342.210938 372.058594 L 342.40625 372.066406 L 342.804688 372.082031 L 343 372.089844 L 343.597656 372.113281 L 343.792969 372.121094 L 344.390625 372.144531 L 344.585938 372.152344 L 344.785156 372.160156 L 344.984375 372.164063 L 345.183594 372.171875 L 345.378906 372.179688 L 345.976563 372.203125 L 346.171875 372.210938 L 346.769531 372.234375 L 346.964844 372.238281 L 347.5625 372.261719 L 347.757813 372.269531 L 348.15625 372.285156 L 348.355469 372.289063 L 348.550781 372.296875 L 349.148438 372.320313 L 349.34375 372.324219 L 349.742188 372.339844 L 349.9375 372.347656 L 350.136719 372.355469 L 350.335938 372.359375 L 350.535156 372.367188 L 350.730469 372.375 L 350.929688 372.382813 L 351.128906 372.386719 L 351.328125 372.394531 L 351.523438 372.402344 L 351.722656 372.410156 L 351.921875 372.414063 L 352.121094 372.421875 L 352.316406 372.429688 L 352.515625 372.4375 L 352.714844 372.441406 L 352.914063 372.449219 L 353.109375 372.457031 L 353.308594 372.460938 L 353.707031 372.476563 L 353.902344 372.484375 L 354.101563 372.488281 L 354.5 372.503906 L 354.695313 372.507813 L 355.09375 372.523438 L 355.292969 372.527344 L 355.488281 372.535156 L 355.6875 372.539063 L 356.085938 372.554688 L 356.28125 372.558594 L 356.679688 372.574219 L 356.875 372.578125 L 357.074219 372.585938 L 357.273438 372.589844 L 357.472656 372.597656 L 357.667969 372.605469 L 357.867188 372.609375 L 358.066406 372.617188 L 358.265625 372.621094 L 358.460938 372.628906 L 358.660156 372.636719 L 358.859375 372.640625 L 359.058594 372.648438 L 359.253906 372.652344 L 359.453125 372.660156 L 359.652344 372.664063 L 359.851563 372.671875 L 360.046875 372.679688 L 360.246094 372.683594 L 360.445313 372.691406 L 360.644531 372.695313 L 360.839844 372.703125 L 361.039063 372.707031 L 361.238281 372.714844 L 361.4375 372.71875 L 361.632813 372.726563 L 361.832031 372.730469 L 362.03125 372.738281 L 362.230469 372.742188 L 362.425781 372.75 L 362.625 372.753906 L 362.824219 372.761719 L 363.023438 372.765625 L 363.21875 372.773438 L 363.417969 372.777344 L 363.617188 372.785156 L 363.8125 372.789063 L 364.011719 372.796875 L 364.210938 372.800781 L 364.410156 372.808594 L 364.605469 372.8125 L 364.804688 372.816406 L 365.003906 372.824219 L 365.203125 372.828125 L 365.398438 372.835938 L 365.597656 372.839844 L 365.796875 372.847656 L 365.996094 372.851563 L 366.191406 372.859375 L 366.589844 372.867188 L 366.789063 372.875 L 366.984375 372.878906 L 367.183594 372.886719 L 367.582031 372.894531 L 367.777344 372.902344 L 367.976563 372.90625 L 368.175781 372.914063 L 368.375 372.917969 L 368.570313 372.921875 L 368.769531 372.929688 L 369.167969 372.9375 L 369.363281 372.945313 L 369.5625 372.949219 L 369.761719 372.957031 L 369.960938 372.960938 L 370.15625 372.964844 L 370.355469 372.972656 L 370.554688 372.976563 L 370.75 372.980469 L 370.949219 372.988281 L 371.347656 372.996094 L 371.542969 373.003906 L 371.941406 373.011719 L 372.140625 373.019531 L 372.335938 373.023438 L 372.535156 373.027344 L 372.734375 373.035156 L 372.933594 373.039063 L 373.128906 373.042969 L 373.328125 373.046875 L 373.527344 373.054688 L 373.726563 373.058594 L 373.921875 373.0625 L 374.121094 373.070313 L 374.519531 373.078125 L 374.714844 373.082031 L 374.914063 373.089844 L 375.3125 373.097656 L 375.507813 373.101563 L 375.707031 373.109375 L 376.105469 373.117188 L 376.300781 373.121094 L 376.5 373.128906 L 376.699219 373.132813 L 376.894531 373.136719 L 377.09375 373.140625 L 377.292969 373.148438 L 377.492188 373.152344 L 377.6875 373.15625 L 377.886719 373.160156 L 378.085938 373.167969 L 378.285156 373.171875 L 378.480469 373.175781 L 378.878906 373.183594 L 379.078125 373.191406 L 379.273438 373.195313 L 379.871094 373.207031 L 380.066406 373.214844 L 380.664063 373.226563 L 380.859375 373.230469 L 381.058594 373.238281 L 381.457031 373.246094 L 381.652344 373.25 L 382.050781 373.257813 L 382.25 373.265625 L 382.445313 373.269531 L 383.042969 373.28125 L 383.238281 373.285156 L 383.4375 373.292969 L 383.636719 373.296875 L 383.832031 373.300781 L 384.429688 373.3125 L 384.625 373.316406 L 384.824219 373.324219 L 385.222656 373.332031 L 385.417969 373.335938 L 386.015625 373.347656 L 386.210938 373.351563 L 386.410156 373.355469 L 386.609375 373.363281 L 386.808594 373.367188 L 387.003906 373.371094 L 387.601563 373.382813 L 387.796875 373.386719 L 388.394531 373.398438 L 388.589844 373.402344 L 388.789063 373.410156 L 389.1875 373.417969 L 389.382813 373.421875 L 389.980469 373.433594 L 390.175781 373.4375 L 390.574219 373.445313 L 390.769531 373.449219 L 391.367188 373.460938 L 391.5625 373.464844 L 392.160156 373.476563 L 392.355469 373.484375 L 392.953125 373.496094 L 393.148438 373.5 L 393.746094 373.511719 L 393.941406 373.515625 L 394.539063 373.527344 L 394.734375 373.53125 L 395.332031 373.542969 L 395.527344 373.546875 L 396.125 373.558594 L 396.320313 373.5625 L 396.917969 373.574219 L 397.113281 373.578125 L 397.511719 373.585938 L 397.707031 373.589844 L 398.105469 373.597656 L 398.304688 373.597656 L 398.5 373.601563 L 399.097656 373.613281 L 399.292969 373.617188 L 399.890625 373.628906 L 400.085938 373.632813 L 400.683594 373.644531 L 400.878906 373.648438 L 401.476563 373.660156 L 401.671875 373.664063 L 401.871094 373.667969 L 402.070313 373.667969 L 402.269531 373.671875 L 402.464844 373.675781 L 403.0625 373.6875 L 403.257813 373.691406 L 403.65625 373.699219 L 403.851563 373.703125 L 404.25 373.710938 L 404.449219 373.710938 L 404.644531 373.714844 L 405.242188 373.726563 L 405.4375 373.730469 L 406.035156 373.742188 L 406.230469 373.746094 L 406.429688 373.746094 L 406.828125 373.753906 L 407.023438 373.757813 L 407.621094 373.769531 L 407.816406 373.773438 L 408.015625 373.773438 L 408.414063 373.78125 L 408.609375 373.785156 L 409.207031 373.796875 L 409.402344 373.800781 L 409.601563 373.800781 L 410 373.808594 L 410.195313 373.8125 L 410.59375 373.820313 L 410.789063 373.820313 L 411.386719 373.832031 L 411.582031 373.835938 L 411.980469 373.84375 L 412.179688 373.84375 L 412.375 373.847656 L 412.972656 373.859375 L 413.167969 373.863281 L 413.367188 373.863281 L 413.566406 373.867188 "/>
</g>
</svg>
