<?xml version="1.0" encoding="UTF-8"?>
<svg xmlns="http://www.w3.org/2000/svg" xmlns:xlink="http://www.w3.org/1999/xlink" width="646pt" height="403pt" viewBox="0 0 646 403" version="1.1">
<defs>
<clipPath id="clip1">
  <path d="M 8.21875 5.480469 L 640.519531 5.480469 L 640.519531 394.78125 L 8.21875 394.78125 Z M 8.21875 5.480469 "/>
</clipPath>
</defs>
<g id="surface26">
<rect x="0" y="0" width="646" height="403" style="fill:rgb(100%,100%,100%);fill-opacity:1;stroke:none;"/>
<rect x="0" y="0" width="646" height="403" style="fill:rgb(100%,100%,100%);fill-opacity:1;stroke:none;"/>
<path style="fill:none;stroke-width:1.066978;stroke-linecap:round;stroke-linejoin:round;stroke:rgb(100%,100%,100%);stroke-opacity:1;stroke-miterlimit:10;" d="M 0 403 L 646 403 L 646 0 L 0 0 Z M 0 403 "/>
<g clip-path="url(#clip1)" clip-rule="nonzero">
<path style=" stroke:none;fill-rule:nonzero;fill:rgb(100%,100%,100%);fill-opacity:1;" d="M 8.21875 394.78125 L 640.519531 394.78125 L 640.519531 5.480469 L 8.21875 5.480469 Z M 8.21875 394.78125 "/>
</g>
<path style="fill:none;stroke-width:8.535827;stroke-linecap:butt;stroke-linejoin:round;stroke:rgb(100%,75.294118%,79.607843%);stroke-opacity:1;stroke-miterlimit:10;" d="M 146.175781 68.097656 L 151.925781 106.34375 L 157.671875 140.910156 L 163.421875 172.039063 L 169.167969 199.96875 L 174.917969 224.925781 L 180.664063 247.132813 L 186.414063 266.800781 L 192.160156 284.132813 L 197.910156 299.320313 L 203.65625 312.546875 L 209.40625 324 L 215.152344 333.839844 L 220.902344 342.226563 L 226.652344 349.316406 L 232.398438 355.25 L 238.148438 360.164063 L 243.894531 364.183594 L 249.644531 367.425781 L 255.390625 370 L 261.140625 372.011719 L 266.886719 373.546875 L 272.636719 374.691406 L 278.382813 375.523438 L 284.132813 376.105469 L 289.878906 376.5 L 295.628906 376.753906 L 301.378906 376.910156 L 307.125 377 L 312.875 377.050781 L 318.621094 377.078125 L 324.371094 377.085938 L 330.117188 377.074219 L 335.867188 377.039063 L 341.613281 376.953125 L 347.363281 376.796875 L 353.109375 376.53125 L 358.859375 376.117188 L 364.605469 375.5 L 370.355469 374.617188 L 376.105469 373.402344 L 381.851563 371.777344 L 387.601563 369.65625 L 393.347656 366.945313 L 399.097656 363.539063 L 404.84375 359.328125 L 410.59375 354.191406 L 416.339844 348.003906 L 422.089844 340.621094 L 427.835938 331.90625 L 433.585938 321.699219 L 439.332031 309.84375 L 445.082031 296.160156 L 450.832031 280.476563 L 456.578125 262.601563 L 462.328125 242.339844 L 468.074219 219.484375 L 473.824219 193.824219 L 479.570313 165.136719 L 485.320313 133.191406 L 491.066406 97.75 L 496.816406 58.566406 "/>
</g>
</svg>
